<svg xmlns="http://www.w3.org/2000/svg" viewBox="0 0 24 24" id="chrome"><g data-name="Layer 2"><path fill="none" d="M0 0h24v24H0z"></path><path fill="#fff" d="M1 12C1 4 4 1 12 1s11 3 11 11-3 11-11 11S1 20 1 12"></path><path fill="#ea4335" fill-rule="evenodd" d="M22.58 7.57h-9.39a6.43 6.43 0 0 0-3.25.48 4.57 4.57 0 0 0-2.29 3L3.36 3.62C5.1 1.78 7.89 1 12 1c6.33 0 9.52 1.85 10.58 6.57Z"></path><path fill="#4285f4" fill-rule="evenodd" d="M8.7 12A3.3 3.3 0 1 0 12 8.7 3.3 3.3 0 0 0 8.7 12Z"></path><path fill="#34a853" fill-rule="evenodd" d="M13.28 16.32 9.4 22.87C3.32 22.24 1 19.09 1 12c0-3.22.48-5.63 1.57-7.35l5.51 9.56a4.45 4.45 0 0 0 5.2 2.11Z"></path><path fill="#fbbc05" fill-rule="evenodd" d="M23 12c0 8-3 11-11 11h-1.26c1.73-2.91 4.52-7.64 5.15-8.72a4.52 4.52 0 0 0-.83-5.55h7.73A23.69 23.69 0 0 1 23 12Z"></path></g></svg>